<svg xmlns="http://www.w3.org/2000/svg" viewBox="0 0 1024 1024">
  <path d="M441.6 416.3 L440.2 414.4 L438.8 412.6 L437.4 410.7 L436.0 408.9 L434.6 407.1 L433.2 405.3 L431.7 403.5 L430.3 401.7 L428.8 399.9 L427.4 398.1 L425.9 396.3 L424.5 394.5 L423.0 392.7 L421.5 391.0 L420.0 389.2 L418.5 387.5 L417.0 385.8 L415.4 384.0 L413.9 382.3 L412.3 380.7 L410.7 379.0 L409.1 377.3 L407.5 375.7 L405.9 374.0 L404.2 372.4 L402.6 370.8 L400.9 369.2 L399.2 367.7 L397.5 366.1 L395.8 364.6 L394.0 363.1 L392.2 361.6 L390.5 360.2 L388.6 358.7 L386.8 357.3 L385.0 356.0 L383.1 354.6 L381.2 353.3 L379.3 352.0 L377.3 350.8 L375.4 349.6 L373.4 348.4 L371.4 347.2 L369.4 346.1 L367.3 345.0 L365.3 344.0 L363.2 343.0 L361.1 342.0 L359.0 341.1 L356.9 340.2 L354.7 339.3 L352.6 338.5 L350.4 337.8 L348.2 337.0 L346.0 336.3 L343.8 335.7 L341.6 335.1 L339.4 334.5 L337.1 333.9 L334.9 333.4 L332.6 333.0 L330.3 332.6 L328.1 332.2 L325.8 331.8 L323.5 331.5 L321.2 331.2 L318.9 330.9 L316.6 330.7 L314.3 330.5 L312.0 330.4 L309.7 330.2 L307.4 330.1 L305.1 330.1 L302.8 330.0 L300.5 330.0 L298.2 330.0 L295.9 330.0 L293.6 330.1 L291.3 330.2 L289.0 330.3 L286.7 330.5 L284.4 330.7 L282.1 330.9 L279.8 331.1 L277.5 331.4 L275.2 331.7 L273.0 332.0 L270.7 332.4 L268.4 332.8 L266.1 333.2 L263.9 333.6 L261.6 334.1 L259.4 334.6 L257.1 335.1 L254.9 335.7 L252.7 336.3 L250.4 336.9 L248.2 337.5 L246.0 338.2 L243.8 338.9 L241.6 339.6 L239.4 340.4 L237.3 341.1 L235.1 342.0 L233.0 342.8 L230.8 343.7 L228.7 344.5 L226.6 345.5 L224.5 346.4 L222.4 347.4 L220.3 348.4 L218.3 349.4 L216.2 350.4 L214.2 351.5 L212.1 352.6 L210.1 353.7 L208.1 354.9 L206.1 356.1 L204.2 357.3 L202.2 358.5 L200.3 359.8 L198.4 361.0 L196.5 362.3 L194.6 363.6 L192.7 365.0 L190.8 366.4 L189.0 367.8 L187.2 369.2 L185.4 370.6 L183.6 372.1 L181.8 373.6 L180.1 375.1 L178.4 376.6 L176.7 378.2 L175.0 379.7 L173.3 381.3 L171.7 382.9 L170.0 384.6 L168.4 386.2 L166.9 387.9 L165.3 389.6 L163.8 391.3 L162.2 393.1 L160.7 394.8 L159.3 396.6 L157.8 398.4 L156.4 400.2 L155.0 402.0 L153.6 403.9 L152.3 405.7 L150.9 407.6 L149.6 409.5 L148.3 411.4 L147.1 413.3 L145.8 415.3 L144.6 417.3 L143.4 419.2 L142.3 421.2 L141.1 423.2 L140.0 425.2 L138.9 427.3 L137.9 429.3 L136.8 431.4 L135.8 433.5 L134.8 435.5 L133.9 437.6 L133.0 439.8 L132.1 441.9 L131.2 444.0 L130.3 446.2 L129.5 448.3 L128.7 450.5 L128.0 452.6 L127.2 454.8 L126.5 457.0 L125.8 459.2 L125.2 461.4 L124.5 463.7 L123.9 465.9 L123.4 468.1 L122.8 470.4 L122.3 472.6 L121.8 474.9 L121.4 477.1 L120.9 479.4 L120.5 481.7 L120.2 483.9 L119.8 486.2 L119.5 488.5 L119.2 490.8 L119.0 493.1 L118.8 495.4 L118.6 497.7 L118.4 500.0 L118.3 502.3 L118.2 504.6 L118.1 506.9 L118.0 509.2 L118.0 511.5 L118.0 513.8 L118.0 516.1 L118.1 518.4 L118.2 520.7 L118.3 523.0 L118.5 525.3 L118.7 527.6 L118.9 529.9 L119.1 532.2 L119.4 534.5 L119.7 536.8 L120.0 539.1 L120.4 541.3 L120.8 543.6 L121.2 545.9 L121.6 548.1 L122.1 550.4 L122.6 552.6 L123.1 554.9 L123.7 557.1 L124.3 559.4 L124.9 561.6 L125.5 563.8 L126.2 566.0 L126.9 568.2 L127.6 570.4 L128.4 572.6 L129.2 574.7 L130.0 576.9 L130.8 579.0 L131.7 581.2 L132.6 583.3 L133.5 585.4 L134.4 587.5 L135.4 589.6 L136.4 591.7 L137.4 593.8 L138.4 595.8 L139.5 597.9 L140.6 599.9 L141.7 601.9 L142.9 603.9 L144.1 605.9 L145.3 607.8 L146.5 609.8 L147.8 611.7 L149.0 613.6 L150.3 615.6 L151.7 617.4 L153.0 619.3 L154.4 621.2 L155.8 623.0 L157.2 624.8 L158.6 626.6 L160.1 628.4 L161.6 630.2 L163.1 631.9 L164.6 633.6 L166.2 635.3 L167.7 637.0 L169.3 638.7 L170.9 640.3 L172.6 642.0 L174.2 643.6 L175.9 645.1 L177.6 646.7 L179.3 648.2 L181.1 649.8 L182.8 651.3 L184.6 652.7 L186.4 654.2 L188.2 655.6 L190.0 657.0 L191.9 658.4 L193.7 659.8 L195.6 661.1 L197.5 662.4 L199.4 663.7 L201.4 664.9 L203.3 666.2 L205.3 667.4 L207.2 668.6 L209.2 669.7 L211.2 670.9 L213.3 672.0 L215.3 673.1 L217.3 674.1 L219.4 675.2 L221.5 676.2 L223.6 677.2 L225.7 678.1 L227.8 679.1 L229.9 680.0 L232.0 680.8 L234.2 681.7 L236.3 682.5 L238.5 683.3 L240.7 684.1 L242.8 684.8 L245.0 685.5 L247.2 686.2 L249.4 686.8 L251.7 687.5 L253.9 688.1 L256.1 688.6 L258.4 689.2 L260.6 689.7 L262.9 690.2 L265.1 690.6 L267.4 691.1 L269.7 691.5 L271.9 691.8 L274.2 692.2 L276.5 692.5 L278.8 692.8 L281.1 693.0 L283.4 693.2 L285.7 693.4 L288.0 693.6 L290.3 693.7 L292.6 693.8 L294.9 693.9 L297.2 694.0 L299.5 694.0 L301.8 694.0 L304.1 694.0 L306.4 693.9 L308.7 693.8 L311.0 693.7 L313.3 693.5 L315.6 693.4 L317.9 693.2 L320.2 692.9 L322.5 692.6 L324.8 692.3 L327.1 692.0 L329.3 691.6 L331.6 691.2 L333.9 690.8 L336.1 690.3 L338.4 689.8 L340.6 689.2 L342.8 688.6 L345.0 688.0 L347.3 687.3 L349.4 686.6 L351.6 685.8 L353.8 685.0 L355.9 684.2 L358.1 683.3 L360.2 682.4 L362.3 681.5 L364.4 680.5 L366.4 679.4 L368.5 678.4 L370.5 677.3 L372.5 676.1 L374.5 675.0 L376.5 673.8 L378.4 672.5 L380.3 671.3 L382.2 670.0 L384.1 668.6 L386.0 667.3 L387.8 665.9 L389.7 664.5 L391.5 663.0 L393.2 661.6 L395.0 660.1 L396.7 658.6 L398.5 657.0 L400.2 655.5 L401.8 653.9 L403.5 652.3 L405.2 650.7 L406.8 649.1 L408.4 647.4 L410.0 645.8 L411.6 644.1 L413.2 642.4 L414.7 640.7 L416.3 639.0 L417.8 637.3 L419.3 635.5 L420.8 633.8 L422.3 632.0 L423.8 630.3 L425.3 628.5 L426.7 626.7 L428.2 624.9 L429.7 623.1 L431.1 621.3 L432.5 619.5 L433.9 617.7 L435.4 615.9 L436.8 614.1 L438.2 612.2 L439.6 610.4 L441.0 608.6 L442.3 606.7 L443.7 604.9 L445.1 603.0 L446.5 601.2 L447.8 599.3 L449.2 597.5 L450.6 595.6 L451.9 593.7 L453.3 591.9 L454.6 590.0 L456.0 588.1 L457.3 586.3 L458.7 584.4 L460.0 582.5 L461.4 580.7 L462.7 578.8 L464.1 576.9 L465.4 575.0 L466.8 573.2 L468.1 571.3 L469.5 569.4 L470.8 567.6 L472.2 565.7 L473.5 563.8 L474.8 561.9 L476.2 560.1 L477.5 558.2 L478.9 556.3 L480.3 554.5 L481.6 552.6 L483.0 550.7 L484.3 548.9 L485.7 547.0 L487.0 545.2 L488.4 543.3 L489.8 541.4 L491.1 539.6 L492.5 537.7 L493.9 535.9 L495.3 534.0 L496.6 532.2 L498.0 530.3 L499.4 528.5 L500.8 526.6 L502.2 524.8 L503.6 523.0 L505.0 521.1 L506.4 519.3 L507.8 517.5 L509.2 515.6 L510.6 513.8 L512.0 512.0 L513.4 510.2 L514.8 508.4 L516.2 506.5 L517.6 504.7 L519.0 502.9 L520.4 501.0 L521.8 499.2 L523.2 497.4 L524.6 495.5 L526.0 493.7 L527.4 491.8 L528.7 490.0 L530.1 488.1 L531.5 486.3 L532.9 484.4 L534.2 482.6 L535.6 480.7 L537.0 478.8 L538.3 477.0 L539.7 475.1 L541.0 473.3 L542.4 471.4 L543.7 469.5 L545.1 467.7 L546.5 465.8 L547.8 463.9 L549.2 462.1 L550.5 460.2 L551.8 458.3 L553.2 456.4 L554.5 454.6 L555.9 452.7 L557.2 450.8 L558.6 449.0 L559.9 447.1 L561.3 445.2 L562.6 443.3 L564.0 441.5 L565.3 439.6 L566.7 437.7 L568.0 435.9 L569.4 434.0 L570.7 432.1 L572.1 430.3 L573.4 428.4 L574.8 426.5 L576.2 424.7 L577.5 422.8 L578.9 421.0 L580.3 419.1 L581.7 417.3 L583.0 415.4 L584.4 413.6 L585.8 411.8 L587.2 409.9 L588.6 408.1 L590.1 406.3 L591.5 404.5 L592.9 402.7 L594.3 400.9 L595.8 399.1 L597.3 397.3 L598.7 395.5 L600.2 393.7 L601.7 392.0 L603.2 390.2 L604.7 388.5 L606.2 386.7 L607.7 385.0 L609.3 383.3 L610.8 381.6 L612.4 379.9 L614.0 378.2 L615.6 376.6 L617.2 374.9 L618.8 373.3 L620.5 371.7 L622.2 370.1 L623.8 368.5 L625.5 367.0 L627.3 365.4 L629.0 363.9 L630.8 362.4 L632.5 361.0 L634.3 359.5 L636.2 358.1 L638.0 356.7 L639.9 355.4 L641.8 354.0 L643.7 352.7 L645.6 351.5 L647.5 350.2 L649.5 349.0 L651.5 347.9 L653.5 346.7 L655.5 345.6 L657.6 344.6 L659.6 343.5 L661.7 342.5 L663.8 341.6 L665.9 340.7 L668.1 339.8 L670.2 339.0 L672.4 338.2 L674.6 337.4 L676.7 336.7 L679.0 336.0 L681.2 335.4 L683.4 334.8 L685.6 334.2 L687.9 333.7 L690.1 333.2 L692.4 332.8 L694.7 332.4 L696.9 332.0 L699.2 331.7 L701.5 331.4 L703.8 331.1 L706.1 330.8 L708.4 330.6 L710.7 330.5 L713.0 330.3 L715.3 330.2 L717.6 330.1 L719.9 330.0 L722.2 330.0 L724.5 330.0 L726.8 330.0 L729.1 330.1 L731.4 330.2 L733.7 330.3 L736.0 330.4 L738.3 330.6 L740.6 330.8 L742.9 331.0 L745.2 331.2 L747.5 331.5 L749.8 331.8 L752.1 332.2 L754.3 332.5 L756.6 332.9 L758.9 333.4 L761.1 333.8 L763.4 334.3 L765.6 334.8 L767.9 335.4 L770.1 335.9 L772.3 336.5 L774.6 337.2 L776.8 337.8 L779.0 338.5 L781.2 339.2 L783.3 339.9 L785.5 340.7 L787.7 341.5 L789.8 342.3 L792.0 343.2 L794.1 344.0 L796.2 344.9 L798.3 345.9 L800.4 346.8 L802.5 347.8 L804.6 348.8 L806.7 349.9 L808.7 350.9 L810.7 352.0 L812.8 353.1 L814.8 354.3 L816.8 355.4 L818.7 356.6 L820.7 357.8 L822.6 359.1 L824.6 360.3 L826.5 361.6 L828.4 362.9 L830.3 364.2 L832.1 365.6 L834.0 367.0 L835.8 368.4 L837.6 369.8 L839.4 371.3 L841.2 372.7 L842.9 374.2 L844.7 375.8 L846.4 377.3 L848.1 378.9 L849.8 380.4 L851.4 382.0 L853.1 383.7 L854.7 385.3 L856.3 387.0 L857.8 388.7 L859.4 390.4 L860.9 392.1 L862.4 393.8 L863.9 395.6 L865.4 397.4 L866.8 399.2 L868.2 401.0 L869.6 402.8 L871.0 404.7 L872.3 406.6 L873.7 408.4 L875.0 410.4 L876.2 412.3 L877.5 414.2 L878.7 416.2 L879.9 418.1 L881.1 420.1 L882.3 422.1 L883.4 424.1 L884.5 426.1 L885.6 428.2 L886.6 430.2 L887.6 432.3 L888.6 434.4 L889.6 436.5 L890.5 438.6 L891.4 440.7 L892.3 442.8 L893.2 445.0 L894.0 447.1 L894.8 449.3 L895.6 451.4 L896.4 453.6 L897.1 455.8 L897.8 458.0 L898.5 460.2 L899.1 462.4 L899.7 464.6 L900.3 466.9 L900.9 469.1 L901.4 471.4 L901.9 473.6 L902.4 475.9 L902.8 478.1 L903.2 480.4 L903.6 482.7 L904.0 484.9 L904.3 487.2 L904.6 489.5 L904.9 491.8 L905.1 494.1 L905.3 496.4 L905.5 498.7 L905.7 501.0 L905.8 503.3 L905.9 505.6 L906.0 507.9 L906.0 510.2 L906.0 512.5 L906.0 514.8 L905.9 517.1 L905.8 519.4 L905.7 521.7 L905.6 524.0 L905.4 526.3 L905.2 528.6 L905.0 530.9 L904.8 533.2 L904.5 535.5 L904.2 537.8 L903.8 540.1 L903.5 542.3 L903.1 544.6 L902.6 546.9 L902.2 549.1 L901.7 551.4 L901.2 553.6 L900.6 555.9 L900.1 558.1 L899.5 560.3 L898.8 562.6 L898.2 564.8 L897.5 567.0 L896.8 569.2 L896.0 571.4 L895.3 573.5 L894.5 575.7 L893.7 577.8 L892.8 580.0 L891.9 582.1 L891.0 584.2 L890.1 586.4 L889.2 588.5 L888.2 590.5 L887.2 592.6 L886.1 594.7 L885.1 596.7 L884.0 598.8 L882.9 600.8 L881.7 602.8 L880.6 604.8 L879.4 606.7 L878.2 608.7 L876.9 610.7 L875.7 612.6 L874.4 614.5 L873.1 616.4 L871.7 618.3 L870.4 620.1 L869.0 622.0 L867.6 623.8 L866.2 625.6 L864.7 627.4 L863.3 629.2 L861.8 630.9 L860.2 632.7 L858.7 634.4 L857.1 636.1 L855.6 637.8 L854.0 639.4 L852.3 641.1 L850.7 642.7 L849.0 644.3 L847.3 645.8 L845.6 647.4 L843.9 648.9 L842.2 650.4 L840.4 651.9 L838.6 653.4 L836.8 654.8 L835.0 656.2 L833.2 657.6 L831.3 659.0 L829.4 660.4 L827.5 661.7 L825.6 663.0 L823.7 664.2 L821.8 665.5 L819.8 666.7 L817.9 667.9 L815.9 669.1 L813.9 670.3 L811.9 671.4 L809.8 672.5 L807.8 673.6 L805.7 674.6 L803.7 675.6 L801.6 676.6 L799.5 677.6 L797.4 678.5 L795.3 679.5 L793.2 680.3 L791.0 681.2 L788.9 682.0 L786.7 682.9 L784.6 683.6 L782.4 684.4 L780.2 685.1 L778.0 685.8 L775.8 686.5 L773.6 687.1 L771.3 687.7 L769.1 688.3 L766.9 688.9 L764.6 689.4 L762.4 689.9 L760.1 690.4 L757.9 690.8 L755.6 691.2 L753.3 691.6 L751.0 692.0 L748.8 692.3 L746.5 692.6 L744.2 692.9 L741.9 693.1 L739.6 693.3 L737.3 693.5 L735.0 693.7 L732.7 693.8 L730.4 693.9 L728.1 694.0 L725.8 694.0 L723.5 694.0 L721.2 694.0 L718.9 693.9 L716.6 693.9 L714.3 693.8 L712.0 693.6 L709.7 693.5 L707.4 693.3 L705.1 693.1 L702.8 692.8 L700.5 692.5 L698.2 692.2 L695.9 691.8 L693.7 691.4 L691.4 691.0 L689.1 690.6 L686.9 690.1 L684.6 689.5 L682.4 688.9 L680.2 688.3 L678.0 687.7 L675.8 687.0 L673.6 686.2 L671.4 685.5 L669.3 684.7 L667.1 683.8 L665.0 682.9 L662.9 682.0 L660.8 681.0 L658.7 680.0 L656.7 679.0 L654.6 677.9 L652.6 676.8 L650.6 675.6 L648.6 674.4 L646.7 673.2 L644.7 672.0 L642.8 670.7 L640.9 669.4 L639.0 668.0 L637.2 666.7 L635.4 665.3 L633.5 663.8 L631.8 662.4 L630.0 660.9 L628.2 659.4 L626.5 657.9 L624.8 656.3 L623.1 654.8 L621.4 653.2 L619.8 651.6 L618.1 650.0 L616.5 648.3 L614.9 646.7 L613.3 645.0 L611.7 643.3 L610.1 641.7 L608.6 640.0 L607.0 638.2 L605.5 636.5 L604.0 634.8 L602.5 633.0 L601.0 631.3 L599.5 629.5 L598.1 627.7 L596.6 625.9 L595.2 624.1 L593.7 622.3 L592.3 620.5 L590.8 618.7 L589.4 616.9 L588.0 615.1 L586.6 613.3 L585.2 611.4 L583.8 609.6 L582.4 607.7" fill="none" stroke="#ffffff" stroke-width="50" stroke-linejoin="round"/>
  <path d="M548.8 561.5 L661.1 598.1 L563.3 689.6Z" fill="#ffffff" stroke="#ffffff" stroke-width="8.50" stroke-linejoin="round"/>
  <path d="M475.2 462.5 L460.7 334.4 L362.9 425.9Z" fill="#ffffff" stroke="#ffffff" stroke-width="8.50" stroke-linejoin="round"/>
</svg>
